<svg width="3" height="11" viewBox="0 0 3 11" fill="none" xmlns="http://www.w3.org/2000/svg">
<path d="M2.676 9.596C2.676 9.98 2.564 10.2787 2.34 10.492C2.116 10.6947 1.80133 10.796 1.396 10.796C1.02267 10.796 0.718667 10.6893 0.484 10.476C0.238667 10.252 0.116 9.95867 0.116 9.596C0.116 9.212 0.228 8.91867 0.452 8.716C0.665333 8.50267 0.98 8.396 1.396 8.396C1.76933 8.396 2.07867 8.508 2.324 8.732C2.55867 8.94533 2.676 9.23333 2.676 9.596ZM2.676 5.7835C2.676 6.1675 2.564 6.46617 2.34 6.6795C2.116 6.88217 1.80133 6.9835 1.396 6.9835C1.02267 6.9835 0.718667 6.87683 0.484 6.6635C0.238667 6.4395 0.116 6.14617 0.116 5.7835C0.116 5.3995 0.228 5.10617 0.452 4.9035C0.665333 4.69017 0.98 4.5835 1.396 4.5835C1.76933 4.5835 2.07867 4.6955 2.324 4.9195C2.55867 5.13283 2.676 5.42083 2.676 5.7835ZM2.676 1.971C2.676 2.355 2.564 2.65367 2.34 2.867C2.116 3.06967 1.80133 3.171 1.396 3.171C1.02267 3.171 0.718667 3.06433 0.484 2.851C0.238667 2.627 0.116 2.33367 0.116 1.971C0.116 1.587 0.228 1.29367 0.452 1.091C0.665333 0.877667 0.98 0.771 1.396 0.771C1.76933 0.771 2.07867 0.883 2.324 1.107C2.55867 1.32033 2.676 1.60833 2.676 1.971Z" fill="#213343"/>
</svg>
