<svg width="42" height="42" viewBox="0 0 42 42" fill="none" xmlns="http://www.w3.org/2000/svg">
<path d="M16.8 35H25.2C32.2 35 35 32.2 35 25.2V16.8C35 9.8 32.2 7 25.2 7H16.8C9.8 7 7 9.8 7 16.8V25.2C7 32.2 9.8 35 16.8 35Z" stroke="#292D32" stroke-width="1.5" stroke-linecap="round" stroke-linejoin="round"/>
<path d="M18.375 29.75H23.625C28 29.75 29.75 28 29.75 23.625V18.375C29.75 14 28 12.25 23.625 12.25H18.375C14 12.25 12.25 14 12.25 18.375V23.625C12.25 28 14 29.75 18.375 29.75Z" stroke="#292D32" stroke-width="1.5" stroke-linecap="round" stroke-linejoin="round"/>
<path d="M14.0176 7V3.5" stroke="#292D32" stroke-width="1.5" stroke-linecap="round" stroke-linejoin="round"/>
<path d="M21 7V3.5" stroke="#292D32" stroke-width="1.5" stroke-linecap="round" stroke-linejoin="round"/>
<path d="M28 7V3.5" stroke="#292D32" stroke-width="1.5" stroke-linecap="round" stroke-linejoin="round"/>
<path d="M35 14H38.5" stroke="#292D32" stroke-width="1.5" stroke-linecap="round" stroke-linejoin="round"/>
<path d="M35 21H38.5" stroke="#292D32" stroke-width="1.5" stroke-linecap="round" stroke-linejoin="round"/>
<path d="M35 28H38.5" stroke="#292D32" stroke-width="1.5" stroke-linecap="round" stroke-linejoin="round"/>
<path d="M28 35V38.5" stroke="#292D32" stroke-width="1.5" stroke-linecap="round" stroke-linejoin="round"/>
<path d="M21.0176 35V38.5" stroke="#292D32" stroke-width="1.5" stroke-linecap="round" stroke-linejoin="round"/>
<path d="M14.0176 35V38.5" stroke="#292D32" stroke-width="1.5" stroke-linecap="round" stroke-linejoin="round"/>
<path d="M3.5 14H7" stroke="#292D32" stroke-width="1.5" stroke-linecap="round" stroke-linejoin="round"/>
<path d="M3.5 21H7" stroke="#292D32" stroke-width="1.5" stroke-linecap="round" stroke-linejoin="round"/>
<path d="M3.5 28H7" stroke="#292D32" stroke-width="1.5" stroke-linecap="round" stroke-linejoin="round"/>
<path d="M20.9998 16.975L19.3548 19.845C18.9873 20.475 19.2848 21 20.0198 21H21.9798C22.7148 21 23.0123 21.525 22.6448 22.155L20.9998 25.025" stroke="#0095D2" stroke-width="1.5" stroke-linecap="round" stroke-linejoin="round"/>
</svg>
