<svg width="42" height="42" viewBox="0 0 42 42" fill="none" xmlns="http://www.w3.org/2000/svg">
<path d="M8.75 15.75V28" stroke="#292D32" stroke-width="1.5" stroke-linecap="round" stroke-linejoin="round"/>
<path d="M9.1875 14.875C12.3286 14.875 14.875 12.3286 14.875 9.1875C14.875 6.04638 12.3286 3.5 9.1875 3.5C6.04638 3.5 3.5 6.04638 3.5 9.1875C3.5 12.3286 6.04638 14.875 9.1875 14.875Z" stroke="#0095D2" stroke-width="1.5" stroke-linecap="round" stroke-linejoin="round"/>
<path d="M8.75 38.5C11.6495 38.5 14 36.1495 14 33.25C14 30.3505 11.6495 28 8.75 28C5.85051 28 3.5 30.3505 3.5 33.25C3.5 36.1495 5.85051 38.5 8.75 38.5Z" stroke="#292D32" stroke-width="1.5" stroke-linecap="round" stroke-linejoin="round"/>
<path d="M33.25 38.5C36.1495 38.5 38.5 36.1495 38.5 33.25C38.5 30.3505 36.1495 28 33.25 28C30.3505 28 28 30.3505 28 33.25C28 36.1495 30.3505 38.5 33.25 38.5Z" stroke="#292D32" stroke-width="1.5" stroke-linecap="round" stroke-linejoin="round"/>
<path d="M8.97754 15.75C9.76504 18.8125 12.565 21.0875 15.8725 21.07L21.875 21.0525C26.46 21.035 30.3625 23.975 31.7975 28.07" stroke="#292D32" stroke-width="1.5" stroke-linecap="round" stroke-linejoin="round"/>
</svg>
