<svg width="42" height="42" viewBox="0 0 42 42" fill="none" xmlns="http://www.w3.org/2000/svg">
<path d="M22.7677 5.11006L33.0927 9.69506C36.0677 11.0076 36.0677 13.1776 33.0927 14.4901L22.7677 19.0751C21.5952 19.6001 19.6702 19.6001 18.4977 19.0751L8.17266 14.4901C5.19766 13.1776 5.19766 11.0076 8.17266 9.69506L18.4977 5.11006C19.6702 4.58506 21.5952 4.58506 22.7677 5.11006Z" stroke="#292D32" stroke-width="1.5" stroke-linecap="round" stroke-linejoin="round"/>
<path d="M5.25 19.25C5.25 20.72 6.3525 22.4175 7.7 23.0125L19.5825 28.2975C20.4925 28.7 21.525 28.7 22.4175 28.2975L34.3 23.0125C35.6475 22.4175 36.75 20.72 36.75 19.25" stroke="#0095D2" stroke-width="1.5" stroke-linecap="round" stroke-linejoin="round"/>
<path d="M5.25 28C5.25 29.6275 6.2125 31.0975 7.7 31.7625L19.5825 37.0475C20.4925 37.45 21.525 37.45 22.4175 37.0475L34.3 31.7625C35.7875 31.0975 36.75 29.6275 36.75 28" stroke="#292D32" stroke-width="1.5" stroke-linecap="round" stroke-linejoin="round"/>
</svg>
