<svg width="15" height="15" viewBox="0 0 15 15" fill="none" xmlns="http://www.w3.org/2000/svg">
<path d="M13.9665 3.18898H11.6673C10.9019 3.103 10.127 3.18316 9.39541 3.42395C8.99008 3.63092 8.66045 3.96055 8.45347 4.36589C8.21269 5.09748 8.13253 5.8724 8.2185 6.63779V7.5M13.9665 3.18898L11.811 1.03347M13.9665 3.18898L11.811 5.34449M6.06299 1.03347H4.48228C3.71689 0.94749 2.94197 1.02765 2.21038 1.26844C1.80504 1.47541 1.47541 1.80504 1.26844 2.21038C1.02765 2.94197 0.94749 3.71689 1.03347 4.48228V10.5177C0.94749 11.2831 1.02765 12.058 1.26844 12.7896C1.47541 13.195 1.80504 13.5246 2.21038 13.7316C2.94197 13.9724 3.71689 14.0525 4.48228 13.9665H10.5177C11.2831 14.0525 12.058 13.9724 12.7896 13.7316C13.195 13.5246 13.5246 13.195 13.7316 12.7896C13.9724 12.058 14.0525 11.2831 13.9665 10.5177V8.93701" stroke="#213343" stroke-linecap="round" stroke-linejoin="round"/>
</svg>
