<svg width="42" height="42" viewBox="0 0 42 42" fill="none" xmlns="http://www.w3.org/2000/svg">
<path d="M34.195 11.445L28.8225 6.0725C27.1775 4.4275 24.955 3.5 22.6275 3.5H14C8.75 3.5 5.25 7 5.25 12.25V29.75C5.25 35 8.75 38.5 14 38.5H28C33.25 38.5 36.75 35 36.75 29.75V17.6225C36.75 15.295 35.8225 13.0725 34.195 11.445Z" stroke="#292D32" stroke-width="1.5" stroke-linecap="round" stroke-linejoin="round"/>
<path d="M17.5 32.375H24.5C27.3875 32.375 29.75 30.0125 29.75 27.125V21.875C29.75 18.9875 27.3875 16.625 24.5 16.625H17.5C14.6125 16.625 12.25 18.9875 12.25 21.875V27.125C12.25 30.0125 14.6125 32.375 17.5 32.375Z" stroke="#0095D2" stroke-width="1.5" stroke-linecap="round" stroke-linejoin="round"/>
<path d="M21 16.625V32.375" stroke="#0095D2" stroke-width="1.5" stroke-linecap="round" stroke-linejoin="round"/>
<path d="M13.125 24.5H28.875" stroke="#0095D2" stroke-width="1.5" stroke-linecap="round" stroke-linejoin="round"/>
</svg>
