<svg width="60" height="60" viewBox="0 0 60 60" fill="none" xmlns="http://www.w3.org/2000/svg">
<circle cx="30" cy="30" r="30" fill="#EAEAEA"/>
<path d="M28.4442 42.4443H21.4442C19.085 42.4443 17.0692 41.6276 15.397 39.9943C13.7248 38.361 12.8887 36.3647 12.8887 34.0054C12.8887 31.9832 13.4979 30.1813 14.7165 28.5999C15.935 27.0184 17.5294 26.0073 19.4998 25.5665C20.1479 23.1813 21.4442 21.2499 23.3887 19.7721C25.3331 18.2943 27.5368 17.5554 29.9998 17.5554C33.0331 17.5554 35.6063 18.6119 37.7192 20.7249C39.8322 22.8378 40.8887 25.411 40.8887 28.4443C42.6776 28.6517 44.1618 29.423 45.3415 30.7582C46.5211 32.0934 47.1109 33.6554 47.1109 35.4443C47.1109 37.3888 46.4303 39.0415 45.0692 40.4026C43.7081 41.7638 42.0553 42.4443 40.1109 42.4443H31.5553V31.3221L34.0442 33.7332L36.222 31.5554L29.9998 25.3332L23.7776 31.5554L25.9553 33.7332L28.4442 31.3221V42.4443Z" fill="#424344"/>
</svg>
